<mxfile host="drawio-plugin" modified="2023-05-21T10:59:58.382Z" agent="5.0 (Windows NT 6.2; Win64; x64) AppleWebKit/537.36 (KHTML, like Gecko) Chrome/98.0.4758.102 Safari/537.36" etag="HDlFFByQ8SDuelOzOvzS" version="20.5.3" type="embed"><diagram name="Page-1" id="2YBvvXClWsGukQMizWep"><mxGraphModel dx="1649" dy="448" grid="1" gridSize="10" guides="1" tooltips="1" connect="1" arrows="1" fold="1" page="1" pageScale="1" pageWidth="850" pageHeight="1100" math="0" shadow="0"><root><mxCell id="0"/><mxCell id="1" parent="0"/><mxCell id="aM9ryv3xv72pqoxQDRHE-1" value="c:Controller" style="shape=umlLifeline;perimeter=lifelinePerimeter;whiteSpace=wrap;html=1;container=0;dropTarget=0;collapsible=0;recursiveResize=0;outlineConnect=0;portConstraint=eastwest;newEdgeStyle={&quot;edgeStyle&quot;:&quot;elbowEdgeStyle&quot;,&quot;elbow&quot;:&quot;vertical&quot;,&quot;curved&quot;:0,&quot;rounded&quot;:0};" parent="1" vertex="1"><mxGeometry x="110" y="60" width="100" height="300" as="geometry"/></mxCell><mxCell id="aM9ryv3xv72pqoxQDRHE-2" value="" style="html=1;points=[];perimeter=orthogonalPerimeter;outlineConnect=0;targetShapes=umlLifeline;portConstraint=eastwest;newEdgeStyle={&quot;edgeStyle&quot;:&quot;elbowEdgeStyle&quot;,&quot;elbow&quot;:&quot;vertical&quot;,&quot;curved&quot;:0,&quot;rounded&quot;:0};" parent="aM9ryv3xv72pqoxQDRHE-1" vertex="1"><mxGeometry x="45" y="60" width="10" height="230" as="geometry"/></mxCell><mxCell id="aM9ryv3xv72pqoxQDRHE-3" value="repaint" style="html=1;verticalAlign=bottom;startArrow=oval;endArrow=block;startSize=8;edgeStyle=elbowEdgeStyle;elbow=vertical;curved=0;rounded=0;" parent="aM9ryv3xv72pqoxQDRHE-1" target="aM9ryv3xv72pqoxQDRHE-2" edge="1"><mxGeometry x="-0.04" relative="1" as="geometry"><mxPoint x="-80" y="70" as="sourcePoint"/><Array as="points"><mxPoint x="10" y="70"/><mxPoint x="-20" y="80"/></Array><mxPoint as="offset"/></mxGeometry></mxCell><mxCell id="aM9ryv3xv72pqoxQDRHE-5" value="g:GameView" style="shape=umlLifeline;perimeter=lifelinePerimeter;whiteSpace=wrap;html=1;container=0;dropTarget=0;collapsible=0;recursiveResize=0;outlineConnect=0;portConstraint=eastwest;newEdgeStyle={&quot;edgeStyle&quot;:&quot;elbowEdgeStyle&quot;,&quot;elbow&quot;:&quot;vertical&quot;,&quot;curved&quot;:0,&quot;rounded&quot;:0};" parent="1" vertex="1"><mxGeometry x="490" y="40" width="100" height="320" as="geometry"/></mxCell><mxCell id="aM9ryv3xv72pqoxQDRHE-6" value="" style="html=1;points=[];perimeter=orthogonalPerimeter;outlineConnect=0;targetShapes=umlLifeline;portConstraint=eastwest;newEdgeStyle={&quot;edgeStyle&quot;:&quot;elbowEdgeStyle&quot;,&quot;elbow&quot;:&quot;vertical&quot;,&quot;curved&quot;:0,&quot;rounded&quot;:0};" parent="aM9ryv3xv72pqoxQDRHE-5" vertex="1"><mxGeometry x="45" y="80" width="10" height="220" as="geometry"/></mxCell><mxCell id="aM9ryv3xv72pqoxQDRHE-7" value="" style="html=1;verticalAlign=bottom;endArrow=block;edgeStyle=elbowEdgeStyle;elbow=vertical;curved=0;rounded=0;" parent="1" source="aM9ryv3xv72pqoxQDRHE-2" target="aM9ryv3xv72pqoxQDRHE-6" edge="1"><mxGeometry y="10" relative="1" as="geometry"><mxPoint x="195" y="130" as="sourcePoint"/><Array as="points"><mxPoint x="290" y="140"/><mxPoint x="180" y="120"/></Array><mxPoint as="offset"/></mxGeometry></mxCell><mxCell id="4" value="repaint" style="edgeLabel;html=1;align=center;verticalAlign=middle;resizable=0;points=[];" vertex="1" connectable="0" parent="aM9ryv3xv72pqoxQDRHE-7"><mxGeometry x="-0.1805" y="-1" relative="1" as="geometry"><mxPoint x="23" y="-11" as="offset"/></mxGeometry></mxCell><mxCell id="yQsRKcrNC5CklVszO9y0-7" value="repaint" style="html=1;verticalAlign=bottom;endArrow=block;edgeStyle=elbowEdgeStyle;elbow=vertical;curved=0;rounded=0;" parent="1" source="aM9ryv3xv72pqoxQDRHE-6" target="yQsRKcrNC5CklVszO9y0-10" edge="1"><mxGeometry y="10" relative="1" as="geometry"><mxPoint x="370" y="180" as="sourcePoint"/><mxPoint x="800" y="180" as="targetPoint"/><Array as="points"><mxPoint x="640" y="190"/><mxPoint x="680" y="160"/></Array><mxPoint as="offset"/></mxGeometry></mxCell><mxCell id="yQsRKcrNC5CklVszO9y0-8" value="" style="html=1;verticalAlign=bottom;endArrow=open;dashed=1;endSize=8;edgeStyle=elbowEdgeStyle;elbow=vertical;curved=0;rounded=0;" parent="1" edge="1"><mxGeometry x="0.1045" y="9" relative="1" as="geometry"><mxPoint x="540" y="281" as="targetPoint"/><mxPoint x="740" y="280" as="sourcePoint"/><mxPoint as="offset"/></mxGeometry></mxCell><mxCell id="yQsRKcrNC5CklVszO9y0-9" value="o:ObjectView" style="shape=umlLifeline;perimeter=lifelinePerimeter;whiteSpace=wrap;html=1;container=0;dropTarget=0;collapsible=0;recursiveResize=0;outlineConnect=0;portConstraint=eastwest;newEdgeStyle={&quot;edgeStyle&quot;:&quot;elbowEdgeStyle&quot;,&quot;elbow&quot;:&quot;vertical&quot;,&quot;curved&quot;:0,&quot;rounded&quot;:0};" parent="1" vertex="1"><mxGeometry x="690" y="40" width="100" height="320" as="geometry"/></mxCell><mxCell id="yQsRKcrNC5CklVszO9y0-10" value="" style="html=1;points=[];perimeter=orthogonalPerimeter;outlineConnect=0;targetShapes=umlLifeline;portConstraint=eastwest;newEdgeStyle={&quot;edgeStyle&quot;:&quot;elbowEdgeStyle&quot;,&quot;elbow&quot;:&quot;vertical&quot;,&quot;curved&quot;:0,&quot;rounded&quot;:0};" parent="yQsRKcrNC5CklVszO9y0-9" vertex="1"><mxGeometry x="45" y="80" width="10" height="200" as="geometry"/></mxCell><mxCell id="yQsRKcrNC5CklVszO9y0-12" value="loop" style="shape=umlFrame;whiteSpace=wrap;html=1;pointerEvents=0;" parent="1" vertex="1"><mxGeometry x="410" y="150" width="370" height="150" as="geometry"/></mxCell><mxCell id="yQsRKcrNC5CklVszO9y0-13" value="" style="html=1;verticalAlign=bottom;endArrow=open;dashed=1;endSize=8;edgeStyle=elbowEdgeStyle;elbow=vertical;curved=0;rounded=0;" parent="1" target="aM9ryv3xv72pqoxQDRHE-1" edge="1"><mxGeometry relative="1" as="geometry"><mxPoint x="340" y="331" as="targetPoint"/><mxPoint x="540" y="330" as="sourcePoint"/></mxGeometry></mxCell><mxCell id="yQsRKcrNC5CklVszO9y0-15" value="[foreach o in mapObject]" style="text;html=1;strokeColor=none;fillColor=none;align=center;verticalAlign=middle;whiteSpace=wrap;rounded=0;" parent="1" vertex="1"><mxGeometry x="425" y="220" width="100" height="30" as="geometry"/></mxCell><mxCell id="yQsRKcrNC5CklVszO9y0-16" value="callallobjectdraw" style="shape=umlFrame;whiteSpace=wrap;html=1;pointerEvents=0;width=100;height=30;" parent="1" vertex="1"><mxGeometry x="-10" width="820" height="400" as="geometry"/></mxCell><mxCell id="_VQ4HuBmABRvyjUbdhV9-1" value="User" style="shape=umlActor;verticalLabelPosition=bottom;verticalAlign=top;html=1;outlineConnect=0;" parent="1" vertex="1"><mxGeometry x="20" y="40" width="30" height="60" as="geometry"/></mxCell><mxCell id="3" value="" style="html=1;verticalAlign=bottom;endArrow=open;dashed=1;endSize=8;edgeStyle=elbowEdgeStyle;elbow=vertical;curved=0;rounded=0;" edge="1" parent="1"><mxGeometry relative="1" as="geometry"><mxPoint y="340" as="targetPoint"/><mxPoint x="160.5" y="340" as="sourcePoint"/></mxGeometry></mxCell><mxCell id="5" style="edgeStyle=orthogonalEdgeStyle;rounded=0;orthogonalLoop=1;jettySize=auto;html=1;exitX=0.5;exitY=1;exitDx=0;exitDy=0;" edge="1" parent="1" source="yQsRKcrNC5CklVszO9y0-15" target="yQsRKcrNC5CklVszO9y0-15"><mxGeometry relative="1" as="geometry"/></mxCell></root></mxGraphModel></diagram></mxfile>